<?xml version="1.0" encoding="UTF-8" standalone="no"?>
<svg
   xmlns:dc="http://purl.org/dc/elements/1.1/"
   xmlns:cc="http://creativecommons.org/ns#"
   xmlns:rdf="http://www.w3.org/1999/02/22-rdf-syntax-ns#"
   xmlns:svg="http://www.w3.org/2000/svg"
   xmlns="http://www.w3.org/2000/svg"
   xmlns:sodipodi="http://sodipodi.sourceforge.net/DTD/sodipodi-0.dtd"
   xmlns:inkscape="http://www.inkscape.org/namespaces/inkscape"
   width="210mm"
   height="297mm"
   viewBox="0 0 210 297"
   version="1.1"
   id="svg8"
   inkscape:version="1.0.2 (e86c870879, 2021-01-15)"
   sodipodi:docname="touchGUI.svg">
  <defs
     id="defs2">
    <inkscape:path-effect
       effect="perspective-envelope"
       up_left_point="47.309664,74.901925"
       up_right_point="126.18155,51.089425"
       down_left_point="47.309664,280.3959"
       down_right_point="126.18155,300.42864"
       id="path-effect860"
       is_visible="true"
       lpeversion="1"
       deform_type="perspective"
       horizontal_mirror="false"
       vertical_mirror="false"
       overflow_perspective="false" />
  </defs>
  <sodipodi:namedview
     id="base"
     pagecolor="#585858"
     bordercolor="#666666"
     borderopacity="1.0"
     inkscape:pageopacity="0"
     inkscape:pageshadow="2"
     inkscape:zoom="0.49497475"
     inkscape:cx="331.15896"
     inkscape:cy="702.58548"
     inkscape:document-units="mm"
     inkscape:current-layer="layer1"
     inkscape:document-rotation="0"
     showgrid="false"
     inkscape:snap-bbox="true"
     inkscape:snap-bbox-edge-midpoints="true"
     inkscape:snap-smooth-nodes="true"
     inkscape:window-width="1920"
     inkscape:window-height="1043"
     inkscape:window-x="0"
     inkscape:window-y="0"
     inkscape:window-maximized="1" />
  <metadata
     id="metadata5">
    <rdf:RDF>
      <cc:Work
         rdf:about="">
        <dc:format>image/svg+xml</dc:format>
        <dc:type
           rdf:resource="http://purl.org/dc/dcmitype/StillImage" />
        <dc:title></dc:title>
      </cc:Work>
    </rdf:RDF>
  </metadata>
  <g
     inkscape:label="Layer 1"
     inkscape:groupmode="layer"
     id="layer1">
    <path
       id="rect842"
       style="opacity:1;fill:#ff0000;fill-opacity:1;stroke-width:9.5;stroke-linecap:round;stroke-linejoin:round;paint-order:markers fill stroke"
       d="m 22.525091,-98.392887 c 0,0 0.121772,0.206193 0.333314,0.536917 -0.207052,-0.354293 -0.333314,-0.536917 -0.333314,-0.536917 z m 0.333314,0.536917 c 1.378389,2.358601 6.724467,13.141785 7.98866,39.98619 -22.5490036,3.31352 -46.068774,1.773772 -70.912468,-6.386174 v 37.797692 c 20.347754,-5.85176 39.93058252,-12.516691 70.885078,-7.098792 -1.510631,30.6623057 -8.294584,41.2357276 -8.294584,41.2357276 0,0 9.344347,-14.7944441 37.665919,-31.1459026 28.321568,-16.351459 54.19462,-21.890138 54.19462,-21.890138 0,0 -26.391831,-5.125051 -54.856079,-21.55889 C 34.125263,-81.583426 24.614648,-95.110244 22.858405,-97.85597 Z"
       inkscape:export-xdpi="10.53"
       inkscape:export-ydpi="10.53" />
    <path
       id="rect851"
       style="opacity:1;fill:none;fill-opacity:1;stroke-width:40.61102413;stroke-linecap:round;stroke-linejoin:round;paint-order:markers fill stroke;stroke:#000000;stroke-opacity:1;stroke-miterlimit:4;stroke-dasharray:none"
       d="m 417.85742,287.14313 c -130.18997,0 -235,136.93242 -235,307.02344 l 0,461.54823 h 470 l 0,-461.54823 c 0,-170.09102 -104.81002,-307.02344 -235,-307.02344 z"
       transform="scale(0.26458333)"
       sodipodi:nodetypes="ssccss" />
    <path
       id="path858"
       style="opacity:1;fill:#ffffff;fill-opacity:1;stroke:#000000;stroke-width:8.60228;stroke-linecap:round;stroke-linejoin:round;stroke-miterlimit:4;stroke-dasharray:none;stroke-opacity:1;paint-order:markers fill stroke"
       d="M 82.944042,64.143419 C 62.396872,70.346891 47.309664,111.51372 47.309664,156.99117 V 280.3959 l 78.871886,20.03274 V 150.69365 c 0,-55.180751 -20.37188,-93.453675 -43.237508,-86.550231 z"
       sodipodi:nodetypes="ssccss"
       inkscape:path-effect="#path-effect860"
       inkscape:original-d="m 86.745608,74.901925 c -21.847508,0 -39.435944,36.611795 -39.435944,82.089245 V 280.3959 H 126.18155 V 156.99117 c 0,-45.47745 -17.58843,-82.089245 -39.435942,-82.089245 z" />
    <rect
       style="opacity:1;fill:#000000;fill-opacity:1;stroke:none;stroke-width:8.25974;stroke-linecap:round;stroke-linejoin:round;stroke-miterlimit:4;stroke-dasharray:none;stroke-opacity:1;paint-order:markers fill stroke"
       id="rect862"
       width="6.949008"
       height="201.52122"
       x="60.670185"
       y="83.388092"
       ry="0" />
    <rect
       style="opacity:1;fill:#000000;fill-opacity:1;stroke:none;stroke-width:8.67646;stroke-linecap:round;stroke-linejoin:round;stroke-miterlimit:4;stroke-dasharray:none;stroke-opacity:1;paint-order:markers fill stroke"
       id="rect864"
       width="6.949008"
       height="222.36826"
       x="75.995033"
       y="64.143417"
       ry="0" />
    <rect
       style="opacity:1;fill:#000000;fill-opacity:1;stroke:none;stroke-width:8.67646;stroke-linecap:round;stroke-linejoin:round;stroke-miterlimit:4;stroke-dasharray:none;stroke-opacity:1;paint-order:markers fill stroke"
       id="rect866"
       width="6.949008"
       height="222.36826"
       x="92.437279"
       y="67.489494"
       ry="0" />
    <rect
       style="opacity:1;fill:#000000;fill-opacity:1;stroke:none;stroke-width:8.41441;stroke-linecap:round;stroke-linejoin:round;stroke-miterlimit:4;stroke-dasharray:none;stroke-opacity:1;paint-order:markers fill stroke"
       id="rect868"
       width="6.949008"
       height="209.13908"
       x="110.58013"
       y="88.278183"
       ry="0" />
    <path
       id="path870"
       style="opacity:1;fill:#000000;fill-opacity:1;stroke-width:6.05304;stroke-linecap:round;stroke-linejoin:round;paint-order:markers fill stroke"
       d="m 184.98972,157.11679 c 0,0 0.0776,0.13137 0.21238,0.34209 -0.13193,-0.22574 -0.21238,-0.34209 -0.21238,-0.34209 z m 0.21238,0.34209 c 0.87825,1.50281 4.28457,8.37345 5.09007,25.47768 -14.36737,2.11125 -29.35327,1.13018 -45.18272,-4.06903 v 24.08325 c 12.96481,-3.72852 25.44224,-7.97516 45.16526,-4.52308 -0.96251,19.53685 -5.28499,26.27383 -5.28499,26.27383 0,0 5.95386,-9.42645 23.99929,-19.84498 18.04542,-10.41852 34.53074,-13.94756 34.53074,-13.94756 0,0 -16.81586,-3.26548 -34.9522,-13.7365 -16.18664,-9.34536 -22.24644,-17.96413 -23.36545,-19.71361 z"
       inkscape:export-xdpi="10.53"
       inkscape:export-ydpi="10.53" />
  </g>
</svg>
